<svg xmlns="http://www.w3.org/2000/svg" viewBox="0 0 512 512">
  <rect width="512" height="512" rx="92" fill="#1d282d"/>
  <path d="M256 82 367 146v128L256 338 145 274V146L256 82Z" fill="#126e68"/>
  <path d="m256 111 84 49-84 49-84-49 84-49Zm-84 78 70 41v79l-70-41v-79Zm98 41 70-41v79l-70 41v-79Z" fill="#e7f4f1"/>
  <rect x="91" y="343" width="98" height="78" rx="18" fill="#eaf2fb"/>
  <rect x="207" y="343" width="98" height="78" rx="18" fill="#e7f4f1"/>
  <rect x="323" y="343" width="98" height="78" rx="18" fill="#fff4df"/>
  <path d="M189 382h18m98 0h18M256 338v5M140 343v-17h232v17" fill="none" stroke="#dff5f1" stroke-width="14" stroke-linecap="round" stroke-linejoin="round"/>
  <circle cx="140" cy="382" r="12" fill="#2563a6"/>
  <circle cx="256" cy="382" r="12" fill="#0f766e"/>
  <circle cx="372" cy="382" r="12" fill="#b45309"/>
</svg>
